<svg xmlns="http://www.w3.org/2000/svg" viewBox="0 0 50 50"><defs><style>.a{fill:#fff;}.b{fill:#4b274c;}</style></defs><rect class="a" x="2.5" y="2.5" width="45" height="45"/><path class="b" d="M45,5V45H5V5H45m5-5H0V50H50V0Z"/><rect class="b" x="7.76" y="9.46" width="34.49" height="7.08" rx="0.5"/><path class="b" d="M41.74,10V16H8.26V10H41.74m0-1H8.26a1,1,0,0,0-1,1V16a1,1,0,0,0,1,1H41.74a1,1,0,0,0,1-1V10a1,1,0,0,0-1-1Z"/><rect class="b" x="7.76" y="22.46" width="34.49" height="7.09" rx="0.5"/><path class="b" d="M41.74,23V29H8.26V23H41.74m0-1H8.26a1,1,0,0,0-1,1V29a1,1,0,0,0,1,1H41.74a1,1,0,0,0,1-1V23a1,1,0,0,0-1-1Z"/><rect class="b" x="7.76" y="34.46" width="34.49" height="7.09" rx="0.5"/><path class="b" d="M41.74,35V41H8.26V35H41.74m0-1H8.26a1,1,0,0,0-1,1V41a1,1,0,0,0,1,1H41.74a1,1,0,0,0,1-1V35a1,1,0,0,0-1-1Z"/></svg>