<svg xmlns="http://www.w3.org/2000/svg" viewBox="0 0 728 90"><defs><style>.a{fill:#4b274c;}.b{fill:#b2b4b5;}.c{fill:none;stroke:#fbfeff;stroke-miterlimit:10;stroke-width:4.46px;}.d{font-size:35px;fill:#fff;font-family:BenguiatProITC-Book, Benguiat Pro ITC;}.e{letter-spacing:0.02em;}.f{letter-spacing:-0.01em;}.g{letter-spacing:0.01em;}.h{letter-spacing:-0.01em;}</style></defs><rect class="a" x="-3.92" y="-3.76" width="735.59" height="98.01"/><circle class="b" cx="38.12" cy="41.18" r="31.37"/><polygon class="c" points="28.91 19.52 28.9 27.41 44.41 27.38 46.2 27.37 46.2 27.72 46.34 52.5 54.52 52.5 54.52 19.52 28.91 19.52"/><path class="c" d="M44.41,27.38l-11.32,0H20.58v33H46.19v-33Zm-6.24,16.8v8.24H28.33v-17h4.8l5,0Z"/><polygon class="c" points="44.41 27.38 46.2 27.37 46.2 27.72 46.2 27.37 44.41 27.38"/><polygon class="c" points="28.33 35.42 28.33 52.42 38.17 52.42 38.17 44.18 38.17 35.4 33.13 35.42 28.33 35.42"/><text class="d" transform="translate(89.08 58.1)">P<tspan class="e" x="19.6" y="0">r</tspan><tspan x="33.6" y="0">ints &amp; Ph</tspan><tspan class="f" x="189" y="0">o</tspan><tspan x="210.31" y="0">to</tspan><tspan class="g" x="243.91" y="0">g</tspan><tspan x="264.91" y="0">raphs </tspan><tspan class="h" x="369.91" y="0">R</tspan><tspan x="391.96" y="0">eading </tspan><tspan class="h" x="516.74" y="0">R</tspan><tspan x="538.79" y="0">oom </tspan></text></svg>